<?xml version="1.0" encoding="UTF-8" standalone="no"?>
<!-- Created with Inkscape (http://www.inkscape.org/) -->

<svg
   xmlns:dc="http://purl.org/dc/elements/1.1/"
   xmlns:cc="http://creativecommons.org/ns#"
   xmlns:rdf="http://www.w3.org/1999/02/22-rdf-syntax-ns#"
   xmlns:svg="http://www.w3.org/2000/svg"
   xmlns="http://www.w3.org/2000/svg"
   xmlns:sodipodi="http://sodipodi.sourceforge.net/DTD/sodipodi-0.dtd"
   xmlns:inkscape="http://www.inkscape.org/namespaces/inkscape"
   width="166.94217mm"
   height="63.852779mm"
   viewBox="0 0 166.94217 63.852779"
   version="1.1"
   id="svg8"
   inkscape:version="0.92.1 r"
   sodipodi:docname="jaday.svg">
  <defs
     id="defs2" />
  <sodipodi:namedview
     id="base"
     pagecolor="#ffffff"
     bordercolor="#666666"
     borderopacity="1.0"
     inkscape:pageopacity="0.0"
     inkscape:pageshadow="2"
     inkscape:zoom="0.35"
     inkscape:cx="-206.97617"
     inkscape:cy="79.276186"
     inkscape:document-units="mm"
     inkscape:current-layer="layer1"
     showgrid="false"
     fit-margin-top="0"
     fit-margin-left="0"
     fit-margin-right="0"
     fit-margin-bottom="0"
     inkscape:window-width="1918"
     inkscape:window-height="1078"
     inkscape:window-x="0"
     inkscape:window-y="723"
     inkscape:window-maximized="0" />
  <metadata
     id="metadata5">
    <rdf:RDF>
      <cc:Work
         rdf:about="">
        <dc:format>image/svg+xml</dc:format>
        <dc:type
           rdf:resource="http://purl.org/dc/dcmitype/StillImage" />
        <dc:title></dc:title>
      </cc:Work>
    </rdf:RDF>
  </metadata>
  <g
     inkscape:label="Layer 1"
     inkscape:groupmode="layer"
     id="layer1"
     transform="translate(-12.429111,-107.46762)">
    <g
       aria-label="jaday"
       style="font-style:normal;font-weight:normal;font-size:10.58333302px;line-height:1.25;font-family:sans-serif;letter-spacing:0px;word-spacing:0px;fill:#000000;fill-opacity:1;stroke:none;stroke-width:0.26458332"
       id="text12">
      <path
         sodipodi:type="inkscape:offset"
         inkscape:radius="0"
         inkscape:original="M 30.84375 107.4668 L 30.84375 116.00391 L 40.085938 116.00391 L 40.085938 107.4668 L 30.84375 107.4668 z M 101.54492 107.4668 L 101.54492 124.68359 C 98.95789 121.06174 95.524511 119.25 91.244141 119.25 C 88.986363 119.25 86.963189 119.69809 85.175781 120.5918 C 83.435411 121.43846 81.953431 122.66051 80.730469 124.25977 C 79.507505 125.85903 78.566722 127.76387 77.908203 129.97461 C 77.296722 132.13831 76.992186 134.53778 76.992188 137.17188 C 76.992187 140.08817 77.368501 142.69909 78.121094 145.00391 C 78.873686 147.30873 79.907572 149.26012 81.224609 150.85938 C 82.541646 152.45863 84.11868 153.68068 85.953125 154.52734 C 87.78757 155.37401 89.808791 155.79883 92.019531 155.79883 C 96.346939 155.79883 99.568876 154.08214 101.68555 150.64844 L 101.75781 154.88086 L 110.57617 154.88086 L 110.57617 107.4668 L 101.54492 107.4668 z M 59.25 119.25 C 56.474815 119.25 54.121878 119.55648 52.193359 120.16797 C 50.264841 120.73241 48.68976 121.55487 47.466797 122.63672 C 46.290871 123.71857 45.419913 125.01239 44.855469 126.51758 C 44.338064 128.02276 44.056806 129.66962 44.009766 131.45703 L 52.546875 131.45703 C 52.78206 129.9048 53.34653 128.65754 54.240234 127.7168 C 55.180975 126.77606 56.709505 126.30664 58.826172 126.30664 C 60.613579 126.30664 62.023778 126.63445 63.058594 127.29297 C 64.140446 127.90445 64.681641 128.77541 64.681641 129.9043 C 64.681641 131.12726 64.282052 132.0215 63.482422 132.58594 C 62.682793 133.10335 61.130987 133.52622 58.826172 133.85547 C 56.521357 134.18473 54.381805 134.56104 52.40625 134.98438 C 50.477731 135.36067 48.807596 135.97169 47.396484 136.81836 C 45.985373 137.66503 44.879707 138.84052 44.080078 140.3457 C 43.280448 141.80385 42.880859 143.78048 42.880859 146.27344 C 42.880859 149.09566 43.79837 151.40009 45.632812 153.1875 C 47.514294 154.92787 50.453023 155.79883 54.451172 155.79883 C 56.803024 155.79883 58.872749 155.44579 60.660156 154.74023 C 62.447564 153.98764 63.882992 153.0003 64.964844 151.77734 C 65.058914 152.95327 65.247075 153.98716 65.529297 154.88086 L 74.066406 154.88086 L 74.066406 132.9375 C 74.066406 130.7738 73.806472 128.84568 73.289062 127.15234 C 72.771655 125.41197 71.925926 123.9785 70.75 122.84961 C 69.621111 121.67368 68.092581 120.77945 66.164062 120.16797 C 64.282581 119.55648 61.978148 119.25 59.25 119.25 z M 129.66797 119.25 C 126.89279 119.25 124.53985 119.55648 122.61133 120.16797 C 120.68281 120.73241 119.10773 121.55487 117.88477 122.63672 C 116.70884 123.71857 115.83788 125.01239 115.27344 126.51758 C 114.75606 128.02276 114.4748 129.66962 114.42773 131.45703 L 122.96484 131.45703 C 123.20002 129.9048 123.7645 128.65754 124.6582 127.7168 C 125.59894 126.77606 127.12747 126.30664 129.24414 126.30664 C 131.03155 126.30664 132.44175 126.63445 133.47656 127.29297 C 134.55842 127.90445 135.09961 128.77541 135.09961 129.9043 C 135.09961 131.12726 134.70002 132.0215 133.90039 132.58594 C 133.10076 133.10335 131.54895 133.52622 129.24414 133.85547 C 126.93933 134.18473 124.79783 134.56104 122.82227 134.98438 C 120.89375 135.36067 119.22557 135.97169 117.81445 136.81836 C 116.40334 137.66503 115.29767 138.84052 114.49805 140.3457 C 113.69841 141.80385 113.29883 143.78048 113.29883 146.27344 C 113.29883 149.09566 114.21633 151.40009 116.05078 153.1875 C 117.93226 154.92787 120.87099 155.79883 124.86914 155.79883 C 127.22099 155.79883 129.29074 155.44579 131.07812 154.74023 C 132.86554 153.98764 134.30097 153.0003 135.38281 151.77734 C 135.47691 152.95327 135.66504 153.98716 135.94727 154.88086 L 144.48438 154.88086 L 144.48438 132.9375 C 144.48435 130.7738 144.22444 128.84568 143.70703 127.15234 C 143.18962 125.41197 142.3439 123.9785 141.16797 122.84961 C 140.03908 121.67368 138.51055 120.77945 136.58203 120.16797 C 134.70055 119.55648 132.39612 119.25 129.66797 119.25 z M 30.84375 120.16797 L 30.84375 156.85742 C 30.84375 158.83298 30.467436 160.38479 29.714844 161.51367 C 29.009288 162.64257 27.738741 163.20703 25.904297 163.20703 C 24.116889 163.20703 22.871571 162.61929 22.166016 161.44336 C 21.413423 160.31447 21.037109 158.76071 21.037109 156.78516 L 12.429688 156.78516 C 12.429688 161.25368 13.581903 164.78211 15.886719 167.36914 C 18.144496 170.00322 21.647695 171.32031 26.398438 171.32031 C 28.326956 171.32031 30.115422 170.96728 31.761719 170.26172 C 33.455052 169.6032 34.913756 168.63914 36.136719 167.36914 C 37.359682 166.14618 38.323742 164.6642 39.029297 162.92383 C 39.734853 161.23049 40.085938 159.32565 40.085938 157.20898 L 40.085938 120.16797 L 30.84375 120.16797 z M 148.11523 120.16797 L 148.11523 142.67578 C 148.11523 144.6043 148.42172 146.34426 149.0332 147.89648 C 149.69172 149.40167 150.584 150.71877 151.71289 151.84766 C 152.84178 152.92951 154.18213 153.77524 155.73438 154.38672 C 157.28659 154.95117 158.98001 155.23438 160.81445 155.23438 C 162.97815 155.23438 164.90823 154.80956 166.60156 153.96289 C 168.34194 153.06918 169.5407 151.84714 170.19922 150.29492 L 170.19922 155.93945 C 170.19922 157.06835 170.01107 158.10223 169.63477 159.04297 C 169.30551 159.98371 168.83414 160.75961 168.22266 161.37109 C 167.65822 162.02961 167.00064 162.52426 166.24805 162.85352 C 165.49545 163.22981 164.69628 163.41797 163.84961 163.41797 C 161.45072 163.41797 159.63898 162.83022 158.41602 161.6543 C 157.24009 160.47838 156.65234 158.85479 156.65234 156.78516 L 148.11523 156.78516 C 148.11523 161.30071 149.38578 164.85241 151.92578 167.43945 C 154.46578 170.02649 158.29875 171.32031 163.42578 171.32031 C 165.63653 171.32031 167.70625 170.96728 169.63477 170.26172 C 171.61033 169.55617 173.30374 168.54556 174.71484 167.22852 C 176.173 165.91148 177.30194 164.28789 178.10156 162.35938 C 178.94823 160.43085 179.37109 158.24475 179.37109 155.79883 L 179.37109 120.16797 L 170.19922 120.16797 L 170.19922 141.33398 C 170.19922 143.21547 169.5397 144.76727 168.22266 145.99023 C 166.95266 147.2132 165.25924 147.82617 163.14258 147.82617 C 159.2385 147.82617 157.28711 145.6614 157.28711 141.33398 L 157.28711 120.16797 L 148.11523 120.16797 z M 94.207031 127.08203 C 99.334069 127.08203 101.89844 130.84517 101.89844 138.37109 C 101.89844 141.33443 101.14581 143.73391 99.640625 145.56836 C 98.182477 147.4028 96.34746 148.31836 94.136719 148.31836 C 91.831904 148.31836 89.950335 147.35429 88.492188 145.42578 C 87.03404 143.45022 86.304688 140.91108 86.304688 137.80664 C 86.304688 130.65701 88.938883 127.08203 94.207031 127.08203 z M 64.894531 137.87695 L 64.822266 141.6875 C 64.822266 142.72231 64.587558 143.70964 64.117188 144.65039 C 63.693854 145.54409 63.106108 146.34327 62.353516 147.04883 C 61.64796 147.70735 60.778955 148.24854 59.744141 148.67188 C 58.756363 149.04817 57.673973 149.23633 56.498047 149.23633 C 53.534714 149.23633 52.052734 147.94251 52.052734 145.35547 C 52.052734 143.85028 52.547379 142.69806 53.535156 141.89844 C 54.522934 141.0988 56.332723 140.44123 58.966797 139.92383 C 60.66013 139.59457 61.953952 139.28808 62.847656 139.00586 C 63.74136 138.72364 64.424161 138.34733 64.894531 137.87695 z M 135.3125 137.87695 L 135.24023 141.6875 C 135.24023 142.72231 135.00552 143.70964 134.53516 144.65039 C 134.11182 145.54409 133.52408 146.34327 132.77148 147.04883 C 132.06592 147.70735 131.19497 148.24854 130.16016 148.67188 C 129.17238 149.04817 128.09194 149.23633 126.91602 149.23633 C 123.95268 149.23633 122.4707 147.94251 122.4707 145.35547 C 122.4707 143.85028 122.9634 142.69806 123.95117 141.89844 C 124.93895 141.0988 126.75069 140.44123 129.38477 139.92383 C 131.0781 139.59457 132.37194 139.28808 133.26562 139.00586 C 134.15932 138.72364 134.84213 138.34733 135.3125 137.87695 z "
         style="font-style:normal;font-variant:normal;font-weight:normal;font-stretch:normal;font-size:70.55555725px;font-family:Coolvetica;-inkscape-font-specification:'Coolvetica, Normal';font-variant-ligatures:normal;font-variant-caps:normal;font-variant-numeric:normal;font-feature-settings:normal;text-align:center;writing-mode:lr-tb;text-anchor:middle;stroke-width:0.26458332"
         id="path22"
         d="m 30.84375,107.4668 v 8.53711 h 9.242188 v -8.53711 z m 70.70117,0 v 17.21679 C 98.95789,121.06174 95.524511,119.25 91.244141,119.25 c -2.257778,0 -4.280952,0.44809 -6.06836,1.3418 -1.74037,0.84666 -3.22235,2.06871 -4.445312,3.66797 -1.222964,1.59926 -2.163747,3.5041 -2.822266,5.71484 -0.611481,2.1637 -0.916017,4.56317 -0.916015,7.19727 -10e-7,2.91629 0.376313,5.52721 1.128906,7.83203 0.752592,2.30482 1.786478,4.25621 3.103515,5.85547 1.317037,1.59925 2.894071,2.8213 4.728516,3.66796 1.834445,0.84667 3.855666,1.27149 6.066406,1.27149 4.327408,0 7.549345,-1.71669 9.666019,-5.15039 l 0.0723,4.23242 h 8.81836 V 107.4668 Z M 59.25,119.25 c -2.775185,0 -5.128122,0.30648 -7.056641,0.91797 -1.928518,0.56444 -3.503599,1.3869 -4.726562,2.46875 -1.175926,1.08185 -2.046884,2.37567 -2.611328,3.88086 -0.517405,1.50518 -0.798663,3.15204 -0.845703,4.93945 h 8.537109 c 0.235185,-1.55223 0.799655,-2.79949 1.693359,-3.74023 0.940741,-0.94074 2.469271,-1.41016 4.585938,-1.41016 1.787407,0 3.197606,0.32781 4.232422,0.98633 1.081852,0.61148 1.623047,1.48244 1.623047,2.61133 0,1.22296 -0.399589,2.1172 -1.199219,2.68164 -0.799629,0.51741 -2.351435,0.94028 -4.65625,1.26953 -2.304815,0.32926 -4.444367,0.70557 -6.419922,1.12891 -1.928519,0.37629 -3.598654,0.98731 -5.009766,1.83398 -1.411111,0.84667 -2.516777,2.02216 -3.316406,3.52734 -0.79963,1.45815 -1.199219,3.43478 -1.199219,5.92774 0,2.82222 0.917511,5.12665 2.751953,6.91406 1.881482,1.74037 4.820211,2.61133 8.81836,2.61133 2.351852,0 4.421577,-0.35304 6.208984,-1.0586 1.787408,-0.75259 3.222836,-1.73993 4.304688,-2.96289 0.09407,1.17593 0.282231,2.20982 0.564453,3.10352 h 8.537109 V 132.9375 c 0,-2.1637 -0.259934,-4.09182 -0.777344,-5.78516 -0.517407,-1.74037 -1.363136,-3.17384 -2.539062,-4.30273 -1.128889,-1.17593 -2.657419,-2.07016 -4.585938,-2.68164 C 64.282581,119.55648 61.978148,119.25 59.25,119.25 Z m 70.41797,0 c -2.77518,0 -5.12812,0.30648 -7.05664,0.91797 -1.92852,0.56444 -3.5036,1.3869 -4.72656,2.46875 -1.17593,1.08185 -2.04689,2.37567 -2.61133,3.88086 -0.51738,1.50518 -0.79864,3.15204 -0.84571,4.93945 h 8.53711 c 0.23518,-1.55223 0.79966,-2.79949 1.69336,-3.74023 0.94074,-0.94074 2.46927,-1.41016 4.58594,-1.41016 1.78741,0 3.19761,0.32781 4.23242,0.98633 1.08186,0.61148 1.62305,1.48244 1.62305,2.61133 0,1.22296 -0.39959,2.1172 -1.19922,2.68164 -0.79963,0.51741 -2.35144,0.94028 -4.65625,1.26953 -2.30481,0.32926 -4.44631,0.70557 -6.42187,1.12891 -1.92852,0.37629 -3.5967,0.98731 -5.00782,1.83398 -1.41111,0.84667 -2.51678,2.02216 -3.3164,3.52734 -0.79964,1.45815 -1.19922,3.43478 -1.19922,5.92774 0,2.82222 0.9175,5.12665 2.75195,6.91406 1.88148,1.74037 4.82021,2.61133 8.81836,2.61133 2.35185,0 4.4216,-0.35304 6.20898,-1.0586 1.78742,-0.75259 3.22285,-1.73993 4.30469,-2.96289 0.0941,1.17593 0.28223,2.20982 0.56446,3.10352 h 8.53711 V 132.9375 c -3e-5,-2.1637 -0.25994,-4.09182 -0.77735,-5.78516 -0.51741,-1.74037 -1.36313,-3.17384 -2.53906,-4.30273 -1.12889,-1.17593 -2.65742,-2.07016 -4.58594,-2.68164 -1.88148,-0.61149 -4.18591,-0.91797 -6.91406,-0.91797 z m -98.82422,0.91797 v 36.68945 c 0,1.97556 -0.376314,3.52737 -1.128906,4.65625 -0.705556,1.1289 -1.976103,1.69336 -3.810547,1.69336 -1.787408,0 -3.032726,-0.58774 -3.738281,-1.76367 -0.752593,-1.12889 -1.128907,-2.68265 -1.128907,-4.6582 h -8.607421 c 0,4.46852 1.152215,7.99695 3.457031,10.58398 2.257777,2.63408 5.760976,3.95117 10.511719,3.95117 1.928518,0 3.716984,-0.35303 5.363281,-1.05859 1.693333,-0.65852 3.152037,-1.62258 4.375,-2.89258 1.222963,-1.22296 2.187023,-2.70494 2.892578,-4.44531 0.705556,-1.69334 1.056641,-3.59818 1.056641,-5.71485 v -37.04101 z m 117.27148,0 v 22.50781 c 0,1.92852 0.30649,3.66848 0.91797,5.2207 0.65852,1.50519 1.5508,2.82229 2.67969,3.95118 1.12889,1.08185 2.46924,1.92758 4.02149,2.53906 1.55221,0.56445 3.24563,0.84766 5.08007,0.84766 2.1637,0 4.09378,-0.42482 5.78711,-1.27149 1.74038,-0.89371 2.93914,-2.11575 3.59766,-3.66797 v 5.64453 c 0,1.1289 -0.18815,2.16278 -0.56445,3.10352 -0.32926,0.94074 -0.80063,1.71664 -1.41211,2.32812 -0.56444,0.65852 -1.22202,1.15317 -1.97461,1.48243 -0.7526,0.37629 -1.55177,0.56445 -2.39844,0.56445 -2.39889,0 -4.21063,-0.58775 -5.43359,-1.76367 -1.17593,-1.17592 -1.76368,-2.79951 -1.76368,-4.86914 h -8.53711 c 0,4.51555 1.27055,8.06725 3.81055,10.65429 2.54,2.58704 6.37297,3.88086 11.5,3.88086 2.21075,0 4.28047,-0.35303 6.20899,-1.05859 1.97556,-0.70555 3.66897,-1.71616 5.08007,-3.0332 1.45816,-1.31704 2.5871,-2.94063 3.38672,-4.86914 0.84667,-1.92853 1.26953,-4.11463 1.26953,-6.56055 v -35.63086 h -9.17187 v 21.16601 c 0,1.88149 -0.65952,3.43329 -1.97656,4.65625 -1.27,1.22297 -2.96342,1.83594 -5.08008,1.83594 -3.90408,0 -5.85547,-2.16477 -5.85547,-6.49219 v -21.16601 z m -53.908199,6.91406 c 5.127038,0 7.691409,3.76314 7.691409,11.28906 0,2.96334 -0.75263,5.36282 -2.257815,7.19727 -1.458148,1.83444 -3.293165,2.75 -5.503906,2.75 -2.304815,0 -4.186384,-0.96407 -5.644531,-2.89258 -1.458148,-1.97556 -2.1875,-4.5147 -2.1875,-7.61914 0,-7.14963 2.634195,-10.72461 7.902343,-10.72461 z m -29.3125,10.79492 -0.07227,3.81055 c 0,1.03481 -0.234708,2.02214 -0.705078,2.96289 -0.423334,0.8937 -1.01108,1.69288 -1.763672,2.39844 -0.705556,0.65852 -1.574561,1.19971 -2.609375,1.62305 -0.987778,0.37629 -2.070168,0.56445 -3.246094,0.56445 -2.963333,0 -4.445313,-1.29382 -4.445313,-3.88086 0,-1.50519 0.494645,-2.65741 1.482422,-3.45703 0.987778,-0.79964 2.797567,-1.45721 5.431641,-1.97461 1.693333,-0.32926 2.987155,-0.63575 3.880859,-0.91797 0.893704,-0.28222 1.576505,-0.65853 2.046875,-1.12891 z m 70.417969,0 -0.0723,3.81055 c 0,1.03481 -0.23471,2.02214 -0.70507,2.96289 -0.42334,0.8937 -1.01108,1.69288 -1.76368,2.39844 -0.70556,0.65852 -1.57651,1.19971 -2.61132,1.62305 -0.98778,0.37629 -2.06822,0.56445 -3.24414,0.56445 -2.96334,0 -4.44532,-1.29382 -4.44532,-3.88086 0,-1.50519 0.4927,-2.65741 1.48047,-3.45703 0.98778,-0.79964 2.79952,-1.45721 5.4336,-1.97461 1.69333,-0.32926 2.98717,-0.63575 3.88085,-0.91797 0.8937,-0.28222 1.57651,-0.65853 2.04688,-1.12891 z" />
    </g>
  </g>
</svg>
