<?xml version="1.0" encoding="UTF-8" standalone="no"?>
<!DOCTYPE svg PUBLIC "-//W3C//DTD SVG 1.1//EN"
 "http://www.w3.org/Graphics/SVG/1.1/DTD/svg11.dtd">
<!-- Generated by graphviz version 2.40.1 (20161225.0304)
 -->
<!-- Title: %3 Pages: 1 -->
<svg width="566pt" height="62pt"
 viewBox="0.00 0.00 566.00 62.00" xmlns="http://www.w3.org/2000/svg" xmlns:xlink="http://www.w3.org/1999/xlink">
<g id="graph0" class="graph" transform="scale(1 1) rotate(0) translate(4 58)">
<title>%3</title>
<polygon fill="#ffffff" stroke="transparent" points="-4,4 -4,-58 562,-58 562,4 -4,4"/>
<!-- A -->
<g id="node1" class="node">
<title>A</title>
<ellipse fill="none" stroke="#000000" cx="27" cy="-18" rx="27" ry="18"/>
<text text-anchor="middle" x="27" y="-14.3" font-family="Times,serif" font-size="14.00" fill="#000000">A</text>
</g>
<!-- A&#45;&gt;A -->
<g id="edge1" class="edge">
<title>A:nw&#45;&gt;A:ne</title>
<path fill="none" stroke="#000000" d="M12,-33C3,-42 3,-54 27,-54 43.5,-54 48.6563,-48.3281 47.343,-41.8586"/>
<polygon fill="#000000" stroke="#000000" points="50.1618,-39.7554 42,-33 44.1677,-43.3707 50.1618,-39.7554"/>
</g>
<!-- B -->
<g id="node2" class="node">
<title>B</title>
<ellipse fill="none" stroke="#000000" cx="99" cy="-18" rx="27" ry="18"/>
<text text-anchor="middle" x="99" y="-14.3" font-family="Times,serif" font-size="14.00" fill="#000000">B</text>
</g>
<!-- B&#45;&gt;B -->
<g id="edge2" class="edge">
<title>B:nw&#45;&gt;B:ne</title>
<path fill="none" stroke="#000000" d="M84,-33C75,-42 75,-54 99,-54 115.5,-54 120.6563,-48.3281 119.343,-41.8586"/>
<polygon fill="#000000" stroke="#000000" points="122.1618,-39.7554 114,-33 116.1677,-43.3707 122.1618,-39.7554"/>
</g>
<!-- C -->
<g id="node3" class="node">
<title>C</title>
<ellipse fill="none" stroke="#000000" cx="171" cy="-18" rx="27" ry="18"/>
<text text-anchor="middle" x="171" y="-14.3" font-family="Times,serif" font-size="14.00" fill="#000000">C</text>
</g>
<!-- C&#45;&gt;C -->
<g id="edge3" class="edge">
<title>C:nw&#45;&gt;C:ne</title>
<path fill="none" stroke="#000000" d="M156,-33C147,-42 147,-54 171,-54 187.5,-54 192.6563,-48.3281 191.343,-41.8586"/>
<polygon fill="#000000" stroke="#000000" points="194.1618,-39.7554 186,-33 188.1677,-43.3707 194.1618,-39.7554"/>
</g>
<!-- D -->
<g id="node4" class="node">
<title>D</title>
<ellipse fill="none" stroke="#000000" cx="243" cy="-18" rx="27" ry="18"/>
<text text-anchor="middle" x="243" y="-14.3" font-family="Times,serif" font-size="14.00" fill="#000000">D</text>
</g>
<!-- D&#45;&gt;D -->
<g id="edge4" class="edge">
<title>D:nw&#45;&gt;D:ne</title>
<path fill="none" stroke="#000000" d="M228,-33C219,-42 219,-54 243,-54 259.5,-54 264.6563,-48.3281 263.343,-41.8586"/>
<polygon fill="#000000" stroke="#000000" points="266.1618,-39.7554 258,-33 260.1677,-43.3707 266.1618,-39.7554"/>
</g>
<!-- E -->
<g id="node5" class="node">
<title>E</title>
<ellipse fill="none" stroke="#000000" cx="315" cy="-18" rx="27" ry="18"/>
<text text-anchor="middle" x="315" y="-14.3" font-family="Times,serif" font-size="14.00" fill="#000000">E</text>
</g>
<!-- E&#45;&gt;E -->
<g id="edge5" class="edge">
<title>E:nw&#45;&gt;E:ne</title>
<path fill="none" stroke="#000000" d="M300,-33C291,-42 291,-54 315,-54 331.5,-54 336.6563,-48.3281 335.343,-41.8586"/>
<polygon fill="#000000" stroke="#000000" points="338.1618,-39.7554 330,-33 332.1677,-43.3707 338.1618,-39.7554"/>
</g>
<!-- F -->
<g id="node6" class="node">
<title>F</title>
<ellipse fill="none" stroke="#000000" cx="387" cy="-18" rx="27" ry="18"/>
<text text-anchor="middle" x="387" y="-14.3" font-family="Times,serif" font-size="14.00" fill="#000000">F</text>
</g>
<!-- F&#45;&gt;F -->
<g id="edge6" class="edge">
<title>F:nw&#45;&gt;F:ne</title>
<path fill="none" stroke="#000000" d="M372,-33C363,-42 363,-54 387,-54 403.5,-54 408.6563,-48.3281 407.343,-41.8586"/>
<polygon fill="#000000" stroke="#000000" points="410.1618,-39.7554 402,-33 404.1677,-43.3707 410.1618,-39.7554"/>
</g>
<!-- G -->
<g id="node7" class="node">
<title>G</title>
<ellipse fill="none" stroke="#000000" cx="459" cy="-18" rx="27" ry="18"/>
<text text-anchor="middle" x="459" y="-14.3" font-family="Times,serif" font-size="14.00" fill="#000000">G</text>
</g>
<!-- G&#45;&gt;G -->
<g id="edge7" class="edge">
<title>G:nw&#45;&gt;G:ne</title>
<path fill="none" stroke="#000000" d="M444,-33C435,-42 435,-54 459,-54 475.5,-54 480.6563,-48.3281 479.343,-41.8586"/>
<polygon fill="#000000" stroke="#000000" points="482.1618,-39.7554 474,-33 476.1677,-43.3707 482.1618,-39.7554"/>
</g>
<!-- H -->
<g id="node8" class="node">
<title>H</title>
<ellipse fill="none" stroke="#000000" cx="531" cy="-18" rx="27" ry="18"/>
<text text-anchor="middle" x="531" y="-14.3" font-family="Times,serif" font-size="14.00" fill="#000000">H</text>
</g>
<!-- H&#45;&gt;H -->
<g id="edge8" class="edge">
<title>H:nw&#45;&gt;H:ne</title>
<path fill="none" stroke="#000000" d="M516,-33C507,-42 507,-54 531,-54 547.5,-54 552.6563,-48.3281 551.343,-41.8586"/>
<polygon fill="#000000" stroke="#000000" points="554.1618,-39.7554 546,-33 548.1677,-43.3707 554.1618,-39.7554"/>
</g>
</g>
</svg>
