<?xml version="1.0" encoding="UTF-8" standalone="no"?>
<!DOCTYPE svg PUBLIC "-//W3C//DTD SVG 1.1//EN"
 "http://www.w3.org/Graphics/SVG/1.1/DTD/svg11.dtd">
<!-- Generated by graphviz version 2.40.1 (20161225.0304)
 -->
<!-- Title: %3 Pages: 1 -->
<svg width="442pt" height="152pt"
 viewBox="0.00 0.00 441.50 152.00" xmlns="http://www.w3.org/2000/svg" xmlns:xlink="http://www.w3.org/1999/xlink">
<g id="graph0" class="graph" transform="scale(1 1) rotate(0) translate(4 148)">
<title>%3</title>
<polygon fill="#ffffff" stroke="transparent" points="-4,4 -4,-148 437.5,-148 437.5,4 -4,4"/>
<!-- 1 -->
<g id="node1" class="node">
<title>1</title>
</g>
<!-- 2 -->
<g id="node2" class="node">
<title>2</title>
</g>
<!-- 1&#45;&gt;2 -->
<g id="edge1" class="edge">
<title>1&#45;&gt;2</title>
<path fill="none" stroke="#000000" stroke-width="0" d="M.5,-89.1914C.5,-81.8915 .5,-27.4345 .5,-19.0754"/>
<polygon fill="#000000" stroke="#000000" stroke-width="0" points=".5,-18.7126 .5,-18.7126 .5,-18.7126 .5,-18.7126"/>
</g>
<!-- A -->
<g id="node3" class="node">
<title>A</title>
<ellipse fill="none" stroke="#000000" cx="154.5" cy="-90" rx="27" ry="18"/>
<text text-anchor="middle" x="154.5" y="-86.3" font-family="Times,serif" font-size="14.00" fill="#000000">A</text>
</g>
<!-- A&#45;&gt;A -->
<g id="edge2" class="edge">
<title>A:nw&#45;&gt;A:ne</title>
<path fill="none" stroke="#000000" d="M139.5,-105C130.5,-120 130.5,-144 154.5,-144 174,-144 177.6563,-128.1563 173.5144,-114.1692"/>
<polygon fill="#000000" stroke="#000000" points="176.7168,-112.7568 169.5,-105 170.3045,-115.5643 176.7168,-112.7568"/>
</g>
<!-- B -->
<g id="node4" class="node">
<title>B</title>
<ellipse fill="none" stroke="#000000" cx="46.5" cy="-18" rx="27" ry="18"/>
<text text-anchor="middle" x="46.5" y="-14.3" font-family="Times,serif" font-size="14.00" fill="#000000">B</text>
</g>
<!-- B&#45;&gt;A -->
<g id="edge3" class="edge">
<title>B:n&#45;&gt;A:sw</title>
<path fill="none" stroke="#000000" d="M46.5,-36C46.5,-77.319 98.602,-48.666 131.5731,-68.7669"/>
<polygon fill="#000000" stroke="#000000" points="129.4757,-71.5701 139.5,-75 133.8025,-66.0675 129.4757,-71.5701"/>
</g>
<!-- C -->
<g id="node5" class="node">
<title>C</title>
<ellipse fill="none" stroke="#000000" cx="118.5" cy="-18" rx="27" ry="18"/>
<text text-anchor="middle" x="118.5" y="-14.3" font-family="Times,serif" font-size="14.00" fill="#000000">C</text>
</g>
<!-- C&#45;&gt;A -->
<g id="edge4" class="edge">
<title>C:n&#45;&gt;A:sw</title>
<path fill="none" stroke="#000000" d="M118.5,-36C118.5,-51.9952 123.1736,-58.5547 132.3928,-67.9187"/>
<polygon fill="#000000" stroke="#000000" points="129.9457,-70.4212 139.5,-75 134.8864,-65.4624 129.9457,-70.4212"/>
</g>
<!-- D -->
<g id="node6" class="node">
<title>D</title>
<ellipse fill="none" stroke="#000000" cx="190.5" cy="-18" rx="27" ry="18"/>
<text text-anchor="middle" x="190.5" y="-14.3" font-family="Times,serif" font-size="14.00" fill="#000000">D</text>
</g>
<!-- D&#45;&gt;A -->
<g id="edge5" class="edge">
<title>D:n&#45;&gt;A:se</title>
<path fill="none" stroke="#000000" d="M190.5,-36C190.5,-51.9952 185.8264,-58.5547 176.6072,-67.9187"/>
<polygon fill="#000000" stroke="#000000" points="174.1136,-65.4624 169.5,-75 179.0543,-70.4212 174.1136,-65.4624"/>
</g>
<!-- E -->
<g id="node7" class="node">
<title>E</title>
<ellipse fill="none" stroke="#000000" cx="262.5" cy="-18" rx="27" ry="18"/>
<text text-anchor="middle" x="262.5" y="-14.3" font-family="Times,serif" font-size="14.00" fill="#000000">E</text>
</g>
<!-- E&#45;&gt;A -->
<g id="edge6" class="edge">
<title>E:n&#45;&gt;A:se</title>
<path fill="none" stroke="#000000" d="M262.5,-36C262.5,-77.319 210.398,-48.666 177.4269,-68.7669"/>
<polygon fill="#000000" stroke="#000000" points="175.1975,-66.0675 169.5,-75 179.5243,-71.5701 175.1975,-66.0675"/>
</g>
<!-- G -->
<g id="node8" class="node">
<title>G</title>
<ellipse fill="none" stroke="#000000" cx="370.5" cy="-90" rx="27" ry="18"/>
<text text-anchor="middle" x="370.5" y="-86.3" font-family="Times,serif" font-size="14.00" fill="#000000">G</text>
</g>
<!-- G&#45;&gt;G -->
<g id="edge7" class="edge">
<title>G:nw&#45;&gt;G:ne</title>
<path fill="none" stroke="#000000" d="M355.5,-105C346.5,-120 346.5,-144 370.5,-144 390,-144 393.6563,-128.1563 389.5144,-114.1692"/>
<polygon fill="#000000" stroke="#000000" points="392.7168,-112.7568 385.5,-105 386.3045,-115.5643 392.7168,-112.7568"/>
</g>
<!-- F -->
<g id="node9" class="node">
<title>F</title>
<ellipse fill="none" stroke="#000000" cx="406.5" cy="-18" rx="27" ry="18"/>
<text text-anchor="middle" x="406.5" y="-14.3" font-family="Times,serif" font-size="14.00" fill="#000000">F</text>
</g>
<!-- F&#45;&gt;G -->
<g id="edge8" class="edge">
<title>F:n&#45;&gt;G:se</title>
<path fill="none" stroke="#000000" d="M406.5,-36C406.5,-51.9952 401.8264,-58.5547 392.6072,-67.9187"/>
<polygon fill="#000000" stroke="#000000" points="390.1136,-65.4624 385.5,-75 395.0543,-70.4212 390.1136,-65.4624"/>
</g>
<!-- H -->
<g id="node10" class="node">
<title>H</title>
<ellipse fill="none" stroke="#000000" cx="334.5" cy="-18" rx="27" ry="18"/>
<text text-anchor="middle" x="334.5" y="-14.3" font-family="Times,serif" font-size="14.00" fill="#000000">H</text>
</g>
<!-- H&#45;&gt;G -->
<g id="edge9" class="edge">
<title>H:n&#45;&gt;G:sw</title>
<path fill="none" stroke="#000000" d="M334.5,-36C334.5,-51.9952 339.1736,-58.5547 348.3928,-67.9187"/>
<polygon fill="#000000" stroke="#000000" points="345.9457,-70.4212 355.5,-75 350.8864,-65.4624 345.9457,-70.4212"/>
</g>
</g>
</svg>
