<?xml version="1.0" encoding="UTF-8" standalone="no"?>
<!DOCTYPE svg PUBLIC "-//W3C//DTD SVG 1.1//EN"
 "http://www.w3.org/Graphics/SVG/1.1/DTD/svg11.dtd">
<!-- Generated by graphviz version 2.40.1 (20161225.0304)
 -->
<!-- Title: %3 Pages: 1 -->
<svg width="494pt" height="152pt"
 viewBox="0.00 0.00 494.00 152.00" xmlns="http://www.w3.org/2000/svg" xmlns:xlink="http://www.w3.org/1999/xlink">
<g id="graph0" class="graph" transform="scale(1 1) rotate(0) translate(4 148)">
<title>%3</title>
<polygon fill="#ffffff" stroke="transparent" points="-4,4 -4,-148 490,-148 490,4 -4,4"/>
<!-- A -->
<g id="node1" class="node">
<title>A</title>
<ellipse fill="none" stroke="#000000" cx="27" cy="-90" rx="27" ry="18"/>
<text text-anchor="middle" x="27" y="-86.3" font-family="Times,serif" font-size="14.00" fill="#000000">A</text>
</g>
<!-- A&#45;&gt;A -->
<g id="edge1" class="edge">
<title>A:nw&#45;&gt;A:ne</title>
<path fill="none" stroke="#000000" d="M12,-105C3,-120 3,-144 27,-144 46.5,-144 50.1563,-128.1563 46.0144,-114.1692"/>
<polygon fill="#000000" stroke="#000000" points="49.2168,-112.7568 42,-105 42.8045,-115.5643 49.2168,-112.7568"/>
</g>
<!-- B -->
<g id="node2" class="node">
<title>B</title>
<ellipse fill="none" stroke="#000000" cx="27" cy="-18" rx="27" ry="18"/>
<text text-anchor="middle" x="27" y="-14.3" font-family="Times,serif" font-size="14.00" fill="#000000">B</text>
</g>
<!-- B&#45;&gt;A -->
<g id="edge2" class="edge">
<title>B:n&#45;&gt;A:s</title>
<path fill="none" stroke="#000000" d="M27,-36C27,-48 27,-53.25 27,-61.875"/>
<polygon fill="#000000" stroke="#000000" points="23.5001,-62 27,-72 30.5001,-62 23.5001,-62"/>
</g>
<!-- C -->
<g id="node3" class="node">
<title>C</title>
<ellipse fill="none" stroke="#000000" cx="99" cy="-90" rx="27" ry="18"/>
<text text-anchor="middle" x="99" y="-86.3" font-family="Times,serif" font-size="14.00" fill="#000000">C</text>
</g>
<!-- C&#45;&gt;C -->
<g id="edge3" class="edge">
<title>C:nw&#45;&gt;C:ne</title>
<path fill="none" stroke="#000000" d="M84,-105C75,-120 75,-144 99,-144 118.5,-144 122.1563,-128.1563 118.0144,-114.1692"/>
<polygon fill="#000000" stroke="#000000" points="121.2168,-112.7568 114,-105 114.8045,-115.5643 121.2168,-112.7568"/>
</g>
<!-- D -->
<g id="node4" class="node">
<title>D</title>
<ellipse fill="none" stroke="#000000" cx="171" cy="-90" rx="27" ry="18"/>
<text text-anchor="middle" x="171" y="-86.3" font-family="Times,serif" font-size="14.00" fill="#000000">D</text>
</g>
<!-- D&#45;&gt;D -->
<g id="edge4" class="edge">
<title>D:nw&#45;&gt;D:ne</title>
<path fill="none" stroke="#000000" d="M156,-105C147,-120 147,-144 171,-144 190.5,-144 194.1563,-128.1563 190.0144,-114.1692"/>
<polygon fill="#000000" stroke="#000000" points="193.2168,-112.7568 186,-105 186.8045,-115.5643 193.2168,-112.7568"/>
</g>
<!-- E -->
<g id="node5" class="node">
<title>E</title>
<ellipse fill="none" stroke="#000000" cx="243" cy="-90" rx="27" ry="18"/>
<text text-anchor="middle" x="243" y="-86.3" font-family="Times,serif" font-size="14.00" fill="#000000">E</text>
</g>
<!-- E&#45;&gt;E -->
<g id="edge5" class="edge">
<title>E:nw&#45;&gt;E:ne</title>
<path fill="none" stroke="#000000" d="M228,-105C219,-120 219,-144 243,-144 262.5,-144 266.1563,-128.1563 262.0144,-114.1692"/>
<polygon fill="#000000" stroke="#000000" points="265.2168,-112.7568 258,-105 258.8045,-115.5643 265.2168,-112.7568"/>
</g>
<!-- F -->
<g id="node6" class="node">
<title>F</title>
<ellipse fill="none" stroke="#000000" cx="315" cy="-90" rx="27" ry="18"/>
<text text-anchor="middle" x="315" y="-86.3" font-family="Times,serif" font-size="14.00" fill="#000000">F</text>
</g>
<!-- F&#45;&gt;F -->
<g id="edge6" class="edge">
<title>F:nw&#45;&gt;F:ne</title>
<path fill="none" stroke="#000000" d="M300,-105C291,-120 291,-144 315,-144 334.5,-144 338.1563,-128.1563 334.0144,-114.1692"/>
<polygon fill="#000000" stroke="#000000" points="337.2168,-112.7568 330,-105 330.8045,-115.5643 337.2168,-112.7568"/>
</g>
<!-- G -->
<g id="node7" class="node">
<title>G</title>
<ellipse fill="none" stroke="#000000" cx="387" cy="-90" rx="27" ry="18"/>
<text text-anchor="middle" x="387" y="-86.3" font-family="Times,serif" font-size="14.00" fill="#000000">G</text>
</g>
<!-- G&#45;&gt;G -->
<g id="edge7" class="edge">
<title>G:nw&#45;&gt;G:ne</title>
<path fill="none" stroke="#000000" d="M372,-105C363,-120 363,-144 387,-144 406.5,-144 410.1563,-128.1563 406.0144,-114.1692"/>
<polygon fill="#000000" stroke="#000000" points="409.2168,-112.7568 402,-105 402.8045,-115.5643 409.2168,-112.7568"/>
</g>
<!-- H -->
<g id="node8" class="node">
<title>H</title>
<ellipse fill="none" stroke="#000000" cx="459" cy="-90" rx="27" ry="18"/>
<text text-anchor="middle" x="459" y="-86.3" font-family="Times,serif" font-size="14.00" fill="#000000">H</text>
</g>
<!-- H&#45;&gt;H -->
<g id="edge8" class="edge">
<title>H:nw&#45;&gt;H:ne</title>
<path fill="none" stroke="#000000" d="M444,-105C435,-120 435,-144 459,-144 478.5,-144 482.1563,-128.1563 478.0144,-114.1692"/>
<polygon fill="#000000" stroke="#000000" points="481.2168,-112.7568 474,-105 474.8045,-115.5643 481.2168,-112.7568"/>
</g>
</g>
</svg>
