<?xml version="1.0" encoding="UTF-8" standalone="no"?>
<!DOCTYPE svg PUBLIC "-//W3C//DTD SVG 1.1//EN"
 "http://www.w3.org/Graphics/SVG/1.1/DTD/svg11.dtd">
<!-- Generated by graphviz version 2.40.1 (20161225.0304)
 -->
<!-- Title: %3 Pages: 1 -->
<svg width="334pt" height="296pt"
 viewBox="0.00 0.00 333.50 296.00" xmlns="http://www.w3.org/2000/svg" xmlns:xlink="http://www.w3.org/1999/xlink">
<g id="graph0" class="graph" transform="scale(1 1) rotate(0) translate(4 292)">
<title>%3</title>
<polygon fill="#ffffff" stroke="transparent" points="-4,4 -4,-292 329.5,-292 329.5,4 -4,4"/>
<!-- 1 -->
<g id="node1" class="node">
<title>1</title>
</g>
<!-- 2 -->
<g id="node2" class="node">
<title>2</title>
</g>
<!-- 1&#45;&gt;2 -->
<g id="edge1" class="edge">
<title>1&#45;&gt;2</title>
<path fill="none" stroke="#000000" stroke-width="0" d="M.5,-233.1914C.5,-225.8915 .5,-171.4345 .5,-163.0754"/>
<polygon fill="#000000" stroke="#000000" stroke-width="0" points=".5,-162.7126 .5,-162.7126 .5,-162.7126 .5,-162.7126"/>
</g>
<!-- 3 -->
<g id="node3" class="node">
<title>3</title>
</g>
<!-- 2&#45;&gt;3 -->
<g id="edge2" class="edge">
<title>2&#45;&gt;3</title>
<path fill="none" stroke="#000000" stroke-width="0" d="M.5,-161.1914C.5,-153.8915 .5,-99.4345 .5,-91.0754"/>
<polygon fill="#000000" stroke="#000000" stroke-width="0" points=".5,-90.7126 .5,-90.7126 .5,-90.7126 .5,-90.7126"/>
</g>
<!-- 4 -->
<g id="node4" class="node">
<title>4</title>
</g>
<!-- 3&#45;&gt;4 -->
<g id="edge3" class="edge">
<title>3&#45;&gt;4</title>
<path fill="none" stroke="#000000" stroke-width="0" d="M.5,-89.1914C.5,-81.8915 .5,-27.4345 .5,-19.0754"/>
<polygon fill="#000000" stroke="#000000" stroke-width="0" points=".5,-18.7126 .5,-18.7126 .5,-18.7126 .5,-18.7126"/>
</g>
<!-- A -->
<g id="node5" class="node">
<title>A</title>
<ellipse fill="none" stroke="#000000" cx="82.5" cy="-234" rx="27" ry="18"/>
<text text-anchor="middle" x="82.5" y="-230.3" font-family="Times,serif" font-size="14.00" fill="#000000">A</text>
</g>
<!-- A&#45;&gt;A -->
<g id="edge4" class="edge">
<title>A:nw&#45;&gt;A:ne</title>
<path fill="none" stroke="#000000" d="M67.5,-249C58.5,-264 58.5,-288 82.5,-288 102,-288 105.6563,-272.1563 101.5144,-258.1692"/>
<polygon fill="#000000" stroke="#000000" points="104.7168,-256.7568 97.5,-249 98.3045,-259.5643 104.7168,-256.7568"/>
</g>
<!-- B -->
<g id="node6" class="node">
<title>B</title>
<ellipse fill="none" stroke="#000000" cx="46.5" cy="-162" rx="27" ry="18"/>
<text text-anchor="middle" x="46.5" y="-158.3" font-family="Times,serif" font-size="14.00" fill="#000000">B</text>
</g>
<!-- B&#45;&gt;A -->
<g id="edge5" class="edge">
<title>B:n&#45;&gt;A:sw</title>
<path fill="none" stroke="#000000" d="M46.5,-180C46.5,-195.9952 51.1736,-202.5547 60.3928,-211.9187"/>
<polygon fill="#000000" stroke="#000000" points="57.9457,-214.4212 67.5,-219 62.8864,-209.4624 57.9457,-214.4212"/>
</g>
<!-- C -->
<g id="node7" class="node">
<title>C</title>
<ellipse fill="none" stroke="#000000" cx="46.5" cy="-90" rx="27" ry="18"/>
<text text-anchor="middle" x="46.5" y="-86.3" font-family="Times,serif" font-size="14.00" fill="#000000">C</text>
</g>
<!-- C&#45;&gt;B -->
<g id="edge6" class="edge">
<title>C:n&#45;&gt;B:s</title>
<path fill="none" stroke="#000000" d="M46.5,-108C46.5,-120 46.5,-125.25 46.5,-133.875"/>
<polygon fill="#000000" stroke="#000000" points="43.0001,-134 46.5,-144 50.0001,-134 43.0001,-134"/>
</g>
<!-- D -->
<g id="node8" class="node">
<title>D</title>
<ellipse fill="none" stroke="#000000" cx="46.5" cy="-18" rx="27" ry="18"/>
<text text-anchor="middle" x="46.5" y="-14.3" font-family="Times,serif" font-size="14.00" fill="#000000">D</text>
</g>
<!-- D&#45;&gt;C -->
<g id="edge7" class="edge">
<title>D:n&#45;&gt;C:s</title>
<path fill="none" stroke="#000000" d="M46.5,-36C46.5,-48 46.5,-53.25 46.5,-61.875"/>
<polygon fill="#000000" stroke="#000000" points="43.0001,-62 46.5,-72 50.0001,-62 43.0001,-62"/>
</g>
<!-- E -->
<g id="node9" class="node">
<title>E</title>
<ellipse fill="none" stroke="#000000" cx="118.5" cy="-162" rx="27" ry="18"/>
<text text-anchor="middle" x="118.5" y="-158.3" font-family="Times,serif" font-size="14.00" fill="#000000">E</text>
</g>
<!-- E&#45;&gt;A -->
<g id="edge8" class="edge">
<title>E:n&#45;&gt;A:se</title>
<path fill="none" stroke="#000000" d="M118.5,-180C118.5,-195.9952 113.8264,-202.5547 104.6072,-211.9187"/>
<polygon fill="#000000" stroke="#000000" points="102.1136,-209.4624 97.5,-219 107.0543,-214.4212 102.1136,-209.4624"/>
</g>
<!-- F -->
<g id="node10" class="node">
<title>F</title>
<ellipse fill="none" stroke="#000000" cx="154.5" cy="-234" rx="27" ry="18"/>
<text text-anchor="middle" x="154.5" y="-230.3" font-family="Times,serif" font-size="14.00" fill="#000000">F</text>
</g>
<!-- F&#45;&gt;F -->
<g id="edge9" class="edge">
<title>F:nw&#45;&gt;F:ne</title>
<path fill="none" stroke="#000000" d="M139.5,-249C130.5,-264 130.5,-288 154.5,-288 174,-288 177.6563,-272.1563 173.5144,-258.1692"/>
<polygon fill="#000000" stroke="#000000" points="176.7168,-256.7568 169.5,-249 170.3045,-259.5643 176.7168,-256.7568"/>
</g>
<!-- G -->
<g id="node11" class="node">
<title>G</title>
<ellipse fill="none" stroke="#000000" cx="226.5" cy="-234" rx="27" ry="18"/>
<text text-anchor="middle" x="226.5" y="-230.3" font-family="Times,serif" font-size="14.00" fill="#000000">G</text>
</g>
<!-- G&#45;&gt;G -->
<g id="edge10" class="edge">
<title>G:nw&#45;&gt;G:ne</title>
<path fill="none" stroke="#000000" d="M211.5,-249C202.5,-264 202.5,-288 226.5,-288 246,-288 249.6563,-272.1563 245.5144,-258.1692"/>
<polygon fill="#000000" stroke="#000000" points="248.7168,-256.7568 241.5,-249 242.3045,-259.5643 248.7168,-256.7568"/>
</g>
<!-- H -->
<g id="node12" class="node">
<title>H</title>
<ellipse fill="none" stroke="#000000" cx="298.5" cy="-234" rx="27" ry="18"/>
<text text-anchor="middle" x="298.5" y="-230.3" font-family="Times,serif" font-size="14.00" fill="#000000">H</text>
</g>
<!-- H&#45;&gt;H -->
<g id="edge11" class="edge">
<title>H:nw&#45;&gt;H:ne</title>
<path fill="none" stroke="#000000" d="M283.5,-249C274.5,-264 274.5,-288 298.5,-288 318,-288 321.6563,-272.1563 317.5144,-258.1692"/>
<polygon fill="#000000" stroke="#000000" points="320.7168,-256.7568 313.5,-249 314.3045,-259.5643 320.7168,-256.7568"/>
</g>
</g>
</svg>
