<?xml version="1.0" encoding="UTF-8" standalone="no"?>
<!DOCTYPE svg PUBLIC "-//W3C//DTD SVG 1.1//EN"
 "http://www.w3.org/Graphics/SVG/1.1/DTD/svg11.dtd">
<!-- Generated by graphviz version 2.40.1 (20161225.0304)
 -->
<!-- Title: %3 Pages: 1 -->
<svg width="238pt" height="259pt"
 viewBox="0.00 0.00 238.13 259.48" xmlns="http://www.w3.org/2000/svg" xmlns:xlink="http://www.w3.org/1999/xlink">
<g id="graph0" class="graph" transform="scale(1 1) rotate(0) translate(4 255.4775)">
<title>%3</title>
<polygon fill="#ffffff" stroke="transparent" points="-4,4 -4,-255.4775 234.1251,-255.4775 234.1251,4 -4,4"/>
<!-- A -->
<g id="node1" class="node">
<title>A</title>
<ellipse fill="none" stroke="#000000" cx="116.0861" cy="-94.9706" rx="27" ry="18"/>
<text text-anchor="middle" x="116.0861" y="-91.2706" font-family="Times,serif" font-size="14.00" fill="#000000">A</text>
</g>
<!-- B -->
<g id="node2" class="node">
<title>B</title>
<ellipse fill="none" stroke="#000000" cx="103.9434" cy="-18" rx="27" ry="18"/>
<text text-anchor="middle" x="103.9434" y="-14.3" font-family="Times,serif" font-size="14.00" fill="#000000">B</text>
</g>
<!-- A&#45;&#45;B -->
<g id="edge1" class="edge">
<title>A&#45;&#45;B</title>
<path fill="none" stroke="#000000" d="M113.2084,-76.7296C111.2728,-64.4599 108.7317,-48.3523 106.8004,-36.11"/>
</g>
<!-- E -->
<g id="node5" class="node">
<title>E</title>
<ellipse fill="none" stroke="#000000" cx="87.6736" cy="-161.0515" rx="27" ry="18"/>
<text text-anchor="middle" x="87.6736" y="-157.3515" font-family="Times,serif" font-size="14.00" fill="#000000">E</text>
</g>
<!-- A&#45;&#45;E -->
<g id="edge8" class="edge">
<title>A&#45;&#45;E</title>
<path fill="none" stroke="#000000" d="M108.621,-112.3326C104.4778,-121.9689 99.3385,-133.9216 95.1875,-143.5761"/>
</g>
<!-- C -->
<g id="node3" class="node">
<title>C</title>
<ellipse fill="none" stroke="#000000" cx="27" cy="-30.5927" rx="27" ry="18"/>
<text text-anchor="middle" x="27" y="-26.8927" font-family="Times,serif" font-size="14.00" fill="#000000">C</text>
</g>
<!-- B&#45;&#45;C -->
<g id="edge2" class="edge">
<title>B&#45;&#45;C</title>
<path fill="none" stroke="#000000" d="M77.4639,-22.3337C69.6392,-23.6143 61.079,-25.0153 53.2677,-26.2937"/>
</g>
<!-- D -->
<g id="node4" class="node">
<title>D</title>
<ellipse fill="none" stroke="#000000" cx="39.1803" cy="-107.677" rx="27" ry="18"/>
<text text-anchor="middle" x="39.1803" y="-103.977" font-family="Times,serif" font-size="14.00" fill="#000000">D</text>
</g>
<!-- C&#45;&#45;D -->
<g id="edge3" class="edge">
<title>C&#45;&#45;D</title>
<path fill="none" stroke="#000000" d="M29.8866,-48.8606C31.8282,-61.1485 34.3772,-77.2799 36.3144,-89.5403"/>
</g>
<!-- D&#45;&#45;A -->
<g id="edge4" class="edge">
<title>D&#45;&#45;A</title>
<path fill="none" stroke="#000000" d="M65.6469,-103.3042C73.4678,-102.012 82.0237,-100.5984 89.8312,-99.3084"/>
</g>
<!-- D&#45;&#45;E -->
<g id="edge5" class="edge">
<title>D&#45;&#45;E</title>
<path fill="none" stroke="#000000" d="M53.2066,-123.1152C59.5843,-130.1349 67.1168,-138.4255 73.5109,-145.4632"/>
</g>
<!-- F -->
<g id="node6" class="node">
<title>F</title>
<ellipse fill="none" stroke="#000000" cx="135" cy="-233.4775" rx="27" ry="18"/>
<text text-anchor="middle" x="135" y="-229.7775" font-family="Times,serif" font-size="14.00" fill="#000000">F</text>
</g>
<!-- G -->
<g id="node7" class="node">
<title>G</title>
<ellipse fill="none" stroke="#000000" cx="179.0206" cy="-176.1545" rx="27" ry="18"/>
<text text-anchor="middle" x="179.0206" y="-172.4545" font-family="Times,serif" font-size="14.00" fill="#000000">G</text>
</g>
<!-- F&#45;&#45;G -->
<g id="edge6" class="edge">
<title>F&#45;&#45;G</title>
<path fill="none" stroke="#000000" d="M147.4968,-217.2044C153.4956,-209.3928 160.6619,-200.0609 166.6449,-192.2699"/>
</g>
<!-- H -->
<g id="node8" class="node">
<title>H</title>
<ellipse fill="none" stroke="#000000" cx="203.1251" cy="-108" rx="27" ry="18"/>
<text text-anchor="middle" x="203.1251" y="-104.3" font-family="Times,serif" font-size="14.00" fill="#000000">H</text>
</g>
<!-- G&#45;&#45;H -->
<g id="edge7" class="edge">
<title>G&#45;&#45;H</title>
<path fill="none" stroke="#000000" d="M185.2281,-158.603C188.7991,-148.5062 193.2733,-135.8554 196.8548,-125.7289"/>
</g>
</g>
</svg>
